<svg xmlns="http://www.w3.org/2000/svg" enable-background="new 0 0 66 66" viewBox="0 0 66 66" id="geotag">
  <path d="M55.0537,24.811c-0.38-11.23-9.46-20.56-20.66-21.25c-12.81-0.8-23.46,9.4-23.46,22.02c0,6.06,2.41,11.71,6.78,15.91
		c5.7245,5.4952,10.4268,12.5676,13.2407,19.592c0.7453,1.8605,3.3889,1.8685,4.1458,0.0126
		c2.8699-7.0372,7.5668-14.1561,13.2635-19.6847C52.8237,37.0911,55.2637,31.031,55.0537,24.811z M33.0037,36.251
		c-5.88,0-10.67-4.79-10.67-10.67s4.79-10.66,10.67-10.66s10.66,4.78,10.66,10.66S38.8838,36.251,33.0037,36.251z"></path>
  <path d="M33.0032,31.5878c-3.3133,0-6.0084-2.6954-6.0084-6.0084c0-3.3085,2.695-6.0003,6.0084-6.0003
		c3.3085,0,5.9995,2.6918,5.9995,6.0003C39.0027,28.8923,36.3117,31.5878,33.0032,31.5878z"></path>
</svg>
